<?xml version="1.0" encoding="UTF-8" standalone="no"?>
<!-- Created with Inkscape (http://www.inkscape.org/) -->

<svg
   xmlns:dc="http://purl.org/dc/elements/1.1/"
   xmlns:cc="http://creativecommons.org/ns#"
   xmlns:rdf="http://www.w3.org/1999/02/22-rdf-syntax-ns#"
   xmlns:svg="http://www.w3.org/2000/svg"
   xmlns="http://www.w3.org/2000/svg"
   xmlns:xlink="http://www.w3.org/1999/xlink"
   xmlns:sodipodi="http://sodipodi.sourceforge.net/DTD/sodipodi-0.dtd"
   xmlns:inkscape="http://www.inkscape.org/namespaces/inkscape"
   width="128"
   height="128"
   viewBox="0 0 33.866666 33.866668"
   version="1.1"
   id="svg8"
   inkscape:version="0.92.3 (2405546, 2018-03-11)"
   sodipodi:docname="logo_draughts.svg"
   inkscape:export-filename="/home/georg/Bilder/Brettspiele/OpenBoardGames/Draughts/logo_draughts_OBG.png"
   inkscape:export-xdpi="96"
   inkscape:export-ydpi="96">
  <defs
     id="defs2">
    <linearGradient
       inkscape:collect="always"
       id="linearGradient884">
      <stop
         style="stop-color:#ad7fa8;stop-opacity:1"
         offset="0"
         id="stop880" />
      <stop
         style="stop-color:#75507b;stop-opacity:1"
         offset="1"
         id="stop882" />
    </linearGradient>
    <clipPath
       clipPathUnits="userSpaceOnUse"
       id="clipPath902">
      <rect
         ry="7.9999571"
         rx="7.9999571"
         y="4.2704232e-05"
         x="0"
         height="123.99996"
         width="127.99999"
         id="rect904"
         style="opacity:1;fill:#b03e3e;fill-opacity:1;stroke:none;stroke-width:37.79527664;stroke-linecap:butt;stroke-linejoin:round;stroke-miterlimit:4;stroke-dasharray:none;stroke-dashoffset:0;stroke-opacity:1;paint-order:stroke fill markers" />
    </clipPath>
    <clipPath
       clipPathUnits="userSpaceOnUse"
       id="clipPath2417">
      <path
         style="fill:none;stroke:#000000;stroke-width:0.26458332px;stroke-linecap:butt;stroke-linejoin:miter;stroke-opacity:1"
         d="m -1.058333,267.36665 5.2916661,-5.29166 H 34.925 v 35.98333 H -1.058333 Z"
         id="path2419"
         inkscape:connector-curvature="0" />
    </clipPath>
    <clipPath
       clipPathUnits="userSpaceOnUse"
       id="clipPath2401">
      <path
         inkscape:connector-curvature="0"
         id="path2403"
         d="m -1.0583333,267.36665 5.2916666,-5.29166 H 34.925 v 35.98333 H -1.0583333 Z"
         style="fill:none;stroke:#000000;stroke-width:0.26458332px;stroke-linecap:butt;stroke-linejoin:miter;stroke-opacity:1" />
    </clipPath>
    <clipPath
       clipPathUnits="userSpaceOnUse"
       id="clipPath2411">
      <path
         style="opacity:1;fill:#b03e3e;fill-opacity:1;stroke:none;stroke-width:37.79527664;stroke-linecap:butt;stroke-linejoin:round;stroke-miterlimit:4;stroke-dasharray:none;stroke-dashoffset:0;stroke-opacity:1;paint-order:stroke fill markers"
         d="M 12,0 0,12 v 104 c 0,4.43198 3.5680237,8 8,8 h 112 c 4.43198,0 8,-3.56802 8,-8 V 8 c 0,-4.4319763 -3.56802,-8 -8,-8 z"
         id="path2413"
         inkscape:connector-curvature="0" />
    </clipPath>
    <filter
       inkscape:collect="always"
       style="color-interpolation-filters:sRGB"
       id="filter896"
       x="-0.065092489"
       width="1.130185"
       y="-0.11838847"
       height="1.2367769">
      <feGaussianBlur
         inkscape:collect="always"
         stdDeviation="2.5927344"
         id="feGaussianBlur898" />
    </filter>
    <radialGradient
       inkscape:collect="always"
       xlink:href="#linearGradient884"
       id="radialGradient886"
       cx="16.933332"
       cy="285.54608"
       fx="16.933332"
       fy="285.54608"
       r="16.933332"
       gradientTransform="matrix(1.1875001,2.5578956e-8,-1.6155105e-8,0.7499989,-3.1749972,71.199062)"
       gradientUnits="userSpaceOnUse" />
  </defs>
  <sodipodi:namedview
     id="base"
     pagecolor="#ffffff"
     bordercolor="#666666"
     borderopacity="1.0"
     inkscape:pageopacity="0.0"
     inkscape:pageshadow="2"
     inkscape:zoom="3.959798"
     inkscape:cx="37.362408"
     inkscape:cy="66.466484"
     inkscape:document-units="mm"
     inkscape:current-layer="layer1"
     showgrid="true"
     units="px"
     inkscape:window-width="1920"
     inkscape:window-height="1024"
     inkscape:window-x="0"
     inkscape:window-y="28"
     inkscape:window-maximized="1">
    <inkscape:grid
       type="xygrid"
       id="grid815"
       empspacing="4" />
  </sodipodi:namedview>
  <metadata
     id="metadata5">
    <rdf:RDF>
      <cc:Work
         rdf:about="">
        <dc:format>image/svg+xml</dc:format>
        <dc:type
           rdf:resource="http://purl.org/dc/dcmitype/StillImage" />
        <dc:title />
      </cc:Work>
    </rdf:RDF>
  </metadata>
  <g
     inkscape:label="Ebene 1"
     inkscape:groupmode="layer"
     id="layer1"
     transform="translate(0,-263.13332)">
    <rect
       ry="2.1166553"
       rx="2.1166553"
       y="263.13333"
       x="0"
       height="33.866665"
       width="33.866665"
       id="rect868"
       style="opacity:1;fill:#5c3566;fill-opacity:1;stroke:none;stroke-width:10;stroke-linecap:butt;stroke-linejoin:round;stroke-miterlimit:4;stroke-dasharray:none;stroke-dashoffset:0;stroke-opacity:1;paint-order:stroke fill markers"
       clip-path="url(#clipPath2417)" />
    <rect
       style="opacity:1;fill:url(#radialGradient886);fill-opacity:1;stroke:none;stroke-width:10;stroke-linecap:butt;stroke-linejoin:round;stroke-miterlimit:4;stroke-dasharray:none;stroke-dashoffset:0;stroke-opacity:1;paint-order:stroke fill markers"
       id="rect839"
       width="33.866665"
       height="32.808323"
       x="0"
       y="263.13333"
       rx="2.1166553"
       ry="2.1166553"
       clip-path="url(#clipPath2401)" />
    <path
       sodipodi:nodetypes="ssccs"
       inkscape:connector-curvature="0"
       id="path870"
       transform="matrix(0.26458333,0,0,0.26458333,0,263.13332)"
       d="M 8,0 C 3.5680237,0 0,3.5680237 0,8 V 52.560547 C 14.074473,25.954209 50.516212,5.9177676 95.595703,0 Z"
       style="opacity:1;fill:#000000;fill-opacity:1;stroke:none;stroke-width:37.79527664;stroke-linecap:butt;stroke-linejoin:round;stroke-miterlimit:4;stroke-dasharray:none;stroke-dashoffset:0;stroke-opacity:1;paint-order:stroke fill markers;filter:url(#filter896)"
       clip-path="url(#clipPath2411)" />
    <path
       style="opacity:1;fill:#ffffff;fill-opacity:1;stroke:none;stroke-width:10;stroke-linecap:butt;stroke-linejoin:round;stroke-miterlimit:4;stroke-dasharray:none;stroke-dashoffset:0;stroke-opacity:1;paint-order:stroke fill markers"
       d="M 2.1166666,263.13332 C 0.94403959,263.13332 0,264.07736 0,265.24999 v 11.78997 c 3.7238709,-7.03959 13.365748,-12.3409 25.293029,-13.90664 z"
       id="rect859"
       inkscape:connector-curvature="0"
       sodipodi:nodetypes="ssccs" />
    <g
       id="layer1-62"
       inkscape:label="Ebene 1"
       transform="matrix(0.03321172,0,0,0.03321172,0.3631923,261.83461)">
      <path
         inkscape:export-ydpi="29.58"
         inkscape:export-xdpi="29.58"
         id="path846"
         transform="scale(0.26458333)"
         d="m 784.20117,268.23438 a 195.71427,195.71427 0 0 0 -86.15429,20.25195 c 10.02607,7.06064 19.49408,15.01224 28.27539,23.80469 l 13.3457,13.36132 -120.23828,120.23828 -13.36328,-13.37695 c -3.82481,-3.8294 -8.27602,-6.87904 -13.10743,-9.07031 a 195.71427,195.71427 0 0 0 -4.47265,40.50391 195.71427,195.71427 0 0 0 4.36133,40.55664 c 4.87459,-2.1944 9.36488,-5.25835 13.21875,-9.11719 l 13.36328,-13.38086 120.23633,120.24023 -13.34571,13.36133 c -8.80816,8.81921 -18.30513,16.79241 -28.36523,23.86914 a 195.71427,195.71427 0 0 0 0.47851,0.23828 195.71427,195.71427 0 0 0 0.76172,0.3418 195.71427,195.71427 0 0 0 16.93164,7.25 195.71427,195.71427 0 0 0 2.63672,0.87695 195.71427,195.71427 0 0 0 15.66016,4.92383 195.71427,195.71427 0 0 0 4.88672,1.09766 195.71427,195.71427 0 0 0 13.91797,2.88867 195.71427,195.71427 0 0 0 7.0664,0.85742 195.71427,195.71427 0 0 0 12.41211,1.30469 195.71427,195.71427 0 0 0 11.48633,0.40625 195.71427,195.71427 0 0 0 0.01,0 H 922.18359 V 463.94727 h -74.5957 a 63.384277,63.384277 0 0 1 -0.31641,6.32617 63.384277,63.384277 0 0 1 0,0.002 63.384277,63.384277 0 0 1 -10.73828,29.43359 c -0.0189,0.0265 -0.0377,0.0545 -0.0566,0.082 a 63.384277,63.384277 0 0 1 -3.67187,4.83203 c -0.11679,0.13946 -0.2395,0.27366 -0.35742,0.41211 a 63.384277,63.384277 0 0 1 -3.92188,4.20703 c -0.13909,0.13606 -0.28158,0.26756 -0.42187,0.40234 a 63.384277,63.384277 0 0 1 -4.30079,3.77735 c -0.15193,0.12167 -0.30614,0.24113 -0.45898,0.36132 a 63.384277,63.384277 0 0 1 -4.73242,3.38672 c -0.1115,0.0722 -0.22407,0.14341 -0.33594,0.21485 a 63.384277,63.384277 0 0 1 -5.23633,3.00195 c -0.0548,0.0265 -0.10926,0.056 -0.16406,0.084 a 63.384277,63.384277 0 0 1 -5.69336,2.54883 63.384277,63.384277 0 0 1 -0.0117,0.004 c -0.003,10e-4 -0.006,0.003 -0.01,0.004 a 63.384277,63.384277 0 0 1 -5.96094,1.98047 c -0.0265,0.008 -0.0496,0.0139 -0.0742,0.0215 a 63.384277,63.384277 0 0 1 -5.96484,1.33984 c -0.11226,0.0189 -0.22369,0.0397 -0.33594,0.0586 a 63.384277,63.384277 0 0 1 -5.75391,0.69922 c -0.26834,0.0189 -0.53547,0.0455 -0.80469,0.0625 a 63.384277,63.384277 0 0 1 -2.36718,0.082 63.384281,63.384281 0 0 1 -1.69727,0.0606 63.384277,63.384277 0 0 1 -63.38476,-63.38476 63.384277,63.384277 0 0 1 63.38476,-63.38282 63.384277,63.384277 0 0 1 31.66406,8.54102 L 881.9375,294.66602 A 195.71427,195.71427 0 0 0 784.20312,268.23438 Z M 662.68945,310.7832 a 195.71427,195.71427 0 0 0 -58.3457,76.53516 c 4.67742,1.83092 9.19033,4.07677 13.47656,6.72656 l 67.65039,-67.65039 c -7.20437,-5.8139 -14.82623,-11.02343 -22.78125,-15.61133 z m -44.86718,223.06641 c -4.32283,2.67265 -8.87776,4.9341 -13.59766,6.77344 a 195.71427,195.71427 0 0 0 58.38867,76.53125 c 7.98232,-4.59854 15.63038,-9.82192 22.85742,-15.6543 z"
         style="opacity:1;fill:#83cee4;fill-opacity:1;stroke:none;stroke-width:37.79527664;stroke-linecap:butt;stroke-linejoin:round;stroke-miterlimit:4;stroke-dasharray:none;stroke-dashoffset:0;stroke-opacity:1;paint-order:stroke fill markers"
         inkscape:connector-curvature="0" />
      <path
         inkscape:export-ydpi="29.58"
         inkscape:export-xdpi="29.58"
         id="path816"
         transform="scale(0.26458333)"
         d="m 574.64648,268.23438 a 195.71427,195.71427 0 0 0 -130.21679,49.87304 c 35.54701,38.31532 57.32382,89.57459 57.32422,145.81446 1.6e-4,56.24095 -21.77641,107.50101 -57.32422,145.8164 a 195.71427,195.71427 0 0 0 130.21679,49.92383 195.71427,195.71427 0 0 0 138.30274,-57.41016 L 619.4375,508.73828 a 63.384283,63.384283 0 0 1 -44.79102,18.59375 63.384283,63.384283 0 0 1 -63.38476,-63.38476 63.384283,63.384283 0 0 1 63.38476,-63.38282 63.384283,63.384283 0 0 1 44.79102,18.5918 l 93.51367,-93.51367 A 195.71427,195.71427 0 0 0 574.64648,268.23438 Z M 418.84375,345.7793 a 195.71427,195.71427 0 0 0 -39.91211,118.16797 195.71427,195.71427 0 0 0 39.94141,118.08398 c 28.0479,-31.27827 45.08606,-72.64815 45.08593,-118.10937 -3.1e-4,-45.4774 -17.04915,-86.86023 -45.11523,-118.14258 z"
         style="opacity:1;fill:#b3c952;fill-opacity:1;stroke:none;stroke-width:7.55905533;stroke-linecap:butt;stroke-linejoin:round;stroke-miterlimit:4;stroke-dasharray:none;stroke-dashoffset:0;stroke-opacity:1;paint-order:stroke fill markers"
         inkscape:connector-curvature="0" />
      <path
         inkscape:export-ydpi="29.58"
         inkscape:export-xdpi="29.58"
         id="path815-9"
         transform="scale(0.26458333)"
         d="M 287.14258,268.23438 A 195.71427,195.71427 0 0 0 91.427734,463.94727 195.71427,195.71427 0 0 0 287.14258,659.66211 195.71427,195.71427 0 0 0 482.85742,463.94727 195.71427,195.71427 0 0 0 287.14258,268.23438 Z m 0,132.33007 a 63.384286,63.384286 0 0 1 63.38476,63.38282 63.384286,63.384286 0 0 1 -63.38476,63.38476 63.384286,63.384286 0 0 1 -63.38477,-63.38476 63.384286,63.384286 0 0 1 63.38477,-63.38282 z"
         style="opacity:1;fill:#f4d269;fill-opacity:1;stroke:none;stroke-width:7.55905533;stroke-linecap:butt;stroke-linejoin:round;stroke-miterlimit:4;stroke-dasharray:none;stroke-dashoffset:0;stroke-opacity:1;paint-order:stroke fill markers"
         inkscape:connector-curvature="0" />
    </g>
    <image
       sodipodi:absref="/home/georg/Bilder/Brettspiele/OpenBoardGames/Draughts/logo_draughts.png"
       xlink:href="logo_draughts.png"
       width="27.516668"
       height="15.478127"
       preserveAspectRatio="none"
       id="image896"
       x="3.1749992"
       y="274.11353" />
  </g>
</svg>
