<?xml version="1.0" encoding="UTF-8" standalone="no"?>
<!-- Created with Inkscape (http://www.inkscape.org/) -->

<svg
   xmlns:dc="http://purl.org/dc/elements/1.1/"
   xmlns:cc="http://creativecommons.org/ns#"
   xmlns:rdf="http://www.w3.org/1999/02/22-rdf-syntax-ns#"
   xmlns:svg="http://www.w3.org/2000/svg"
   xmlns="http://www.w3.org/2000/svg"
   xmlns:sodipodi="http://sodipodi.sourceforge.net/DTD/sodipodi-0.dtd"
   xmlns:inkscape="http://www.inkscape.org/namespaces/inkscape"
   width="210mm"
   height="297mm"
   viewBox="0 0 210 297"
   version="1.1"
   id="svg8"
   inkscape:version="0.92.3 (2405546, 2018-03-11)"
   sodipodi:docname="Hütchen.svg.2018_07_31_17_08_45.0.svg">
  <defs
     id="defs2" />
  <sodipodi:namedview
     id="base"
     pagecolor="#ffffff"
     bordercolor="#666666"
     borderopacity="1.0"
     inkscape:pageopacity="0.0"
     inkscape:pageshadow="2"
     inkscape:zoom="0.125"
     inkscape:cx="188.49017"
     inkscape:cy="-208.86091"
     inkscape:document-units="mm"
     inkscape:current-layer="layer3"
     showgrid="false"
     inkscape:snap-bbox="true"
     inkscape:object-paths="true"
     inkscape:snap-intersection-paths="true"
     inkscape:snap-smooth-nodes="true"
     inkscape:window-width="1920"
     inkscape:window-height="1024"
     inkscape:window-x="0"
     inkscape:window-y="28"
     inkscape:window-maximized="1"
     inkscape:snap-object-midpoints="true"
     inkscape:snap-center="true"
     inkscape:snap-global="true" />
  <metadata
     id="metadata5">
    <rdf:RDF>
      <cc:Work
         rdf:about="">
        <dc:format>image/svg+xml</dc:format>
        <dc:type
           rdf:resource="http://purl.org/dc/dcmitype/StillImage" />
        <dc:title />
      </cc:Work>
    </rdf:RDF>
  </metadata>
  <g
     inkscape:groupmode="layer"
     id="layer2"
     inkscape:label="Ebene 2"
     style="display:inline" />
  <g
     inkscape:groupmode="layer"
     id="layer3"
     inkscape:label="Ebene 3" />
  <g
     inkscape:label="Ebene 1"
     inkscape:groupmode="layer"
     id="layer1"
     sodipodi:insensitive="true">
    <circle
       style="opacity:0.4540005;fill:#c83737;fill-opacity:1;stroke:none;stroke-width:24.37435341;stroke-linecap:butt;stroke-linejoin:round;stroke-miterlimit:4;stroke-dasharray:none;stroke-dashoffset:0;stroke-opacity:1;paint-order:stroke fill markers"
       id="circle1551"
       cx="272.61526"
       cy="269.25159"
       r="495.10361" />
    <circle
       style="opacity:0.4540005;fill:#c83737;fill-opacity:1;stroke:none;stroke-width:29.15172577;stroke-linecap:butt;stroke-linejoin:round;stroke-miterlimit:4;stroke-dasharray:none;stroke-dashoffset:0;stroke-opacity:1;paint-order:stroke fill markers"
       id="circle1553"
       cx="272.61526"
       cy="269.25159"
       r="592.14392" />
    <circle
       style="opacity:0.4540005;fill:#c83737;fill-opacity:1;stroke:none;stroke-width:20.71820068;stroke-linecap:butt;stroke-linejoin:round;stroke-miterlimit:4;stroke-dasharray:none;stroke-dashoffset:0;stroke-opacity:1;paint-order:stroke fill markers"
       id="circle1549"
       cx="272.61526"
       cy="269.25159"
       r="420.83807" />
    <circle
       style="opacity:0.4540005;fill:#c83737;fill-opacity:1;stroke:none;stroke-width:17.06204796;stroke-linecap:butt;stroke-linejoin:round;stroke-miterlimit:4;stroke-dasharray:none;stroke-dashoffset:0;stroke-opacity:1;paint-order:stroke fill markers"
       id="circle1547"
       cx="272.61526"
       cy="269.25159"
       r="346.57254" />
    <circle
       style="opacity:0.4540005;fill:#c83737;fill-opacity:1;stroke:none;stroke-width:13.40589428;stroke-linecap:butt;stroke-linejoin:round;stroke-miterlimit:4;stroke-dasharray:none;stroke-dashoffset:0;stroke-opacity:1;paint-order:stroke fill markers"
       id="circle1545"
       cx="272.61526"
       cy="269.25159"
       r="272.30698" />
    <circle
       style="opacity:0.4540005;fill:#c83737;fill-opacity:1;stroke:none;stroke-width:9.74974155;stroke-linecap:butt;stroke-linejoin:round;stroke-miterlimit:4;stroke-dasharray:none;stroke-dashoffset:0;stroke-opacity:1;paint-order:stroke fill markers"
       id="circle1540"
       cx="272.61526"
       cy="269.25159"
       r="198.04144" />
    <g
       id="g920"
       transform="matrix(0,-1.6778765,1.6778765,0,359.1416,1571.088)">
      <path
         id="path886"
         transform="scale(0.26458333)"
         d="m 2932.4727,1285.1543 -141.7071,102.0019 0.166,0.2266 a 239.40616,239.40616 0 0 0 -97.8652,192.7363 239.40616,239.40616 0 0 0 239.4063,239.4063 239.40616,239.40616 0 0 0 239.4062,-239.4063 239.40616,239.40616 0 0 0 -97.8574,-192.748 l 0.1582,-0.2149 z"
         style="opacity:1;fill:#333333;fill-opacity:1;stroke:none;stroke-width:7.55905533;stroke-linecap:butt;stroke-linejoin:round;stroke-miterlimit:4;stroke-dasharray:none;stroke-dashoffset:0;stroke-opacity:1;paint-order:stroke fill markers"
         inkscape:connector-curvature="0" />
      <circle
         inkscape:transform-center-y="-41.378296"
         r="17.003365"
         cy="376.69479"
         cx="775.88342"
         id="path1062"
         style="opacity:1;fill:none;fill-opacity:1;stroke:#ffffff;stroke-width:2.46494699;stroke-linecap:butt;stroke-linejoin:round;stroke-miterlimit:4;stroke-dasharray:none;stroke-dashoffset:0;stroke-opacity:1;paint-order:stroke fill markers" />
      <circle
         inkscape:transform-center-x="-39.353093"
         transform="rotate(72)"
         style="opacity:1;fill:none;fill-opacity:1;stroke:#ffffff;stroke-width:2.46494699;stroke-linecap:butt;stroke-linejoin:round;stroke-miterlimit:4;stroke-dasharray:none;stroke-dashoffset:0;stroke-opacity:1;paint-order:stroke fill markers"
         id="circle898"
         cx="637.37231"
         cy="-650.09558"
         r="17.003365"
         inkscape:transform-center-y="-12.786579" />
      <circle
         inkscape:transform-center-y="33.47575"
         r="17.003365"
         cy="-835.65936"
         cx="-381.96567"
         id="circle900"
         style="opacity:1;fill:none;fill-opacity:1;stroke:#ffffff;stroke-width:2.46494699;stroke-linecap:butt;stroke-linejoin:round;stroke-miterlimit:4;stroke-dasharray:none;stroke-dashoffset:0;stroke-opacity:1;paint-order:stroke fill markers"
         transform="rotate(144)"
         inkscape:transform-center-x="-24.321543" />
      <circle
         inkscape:transform-center-x="24.321558"
         transform="rotate(-144)"
         style="opacity:1;fill:none;fill-opacity:1;stroke:#ffffff;stroke-width:2.46494699;stroke-linecap:butt;stroke-linejoin:round;stroke-miterlimit:4;stroke-dasharray:none;stroke-dashoffset:0;stroke-opacity:1;paint-order:stroke fill markers"
         id="circle902"
         cx="-873.44006"
         cy="76.446304"
         r="17.003365"
         inkscape:transform-center-y="33.475739" />
      <circle
         inkscape:transform-center-y="-12.786617"
         r="17.003365"
         cy="825.72235"
         cx="-157.84996"
         id="circle904"
         style="opacity:1;fill:none;fill-opacity:1;stroke:#ffffff;stroke-width:2.46494699;stroke-linecap:butt;stroke-linejoin:round;stroke-miterlimit:4;stroke-dasharray:none;stroke-dashoffset:0;stroke-opacity:1;paint-order:stroke fill markers"
         transform="rotate(-72)"
         inkscape:transform-center-x="39.353121" />
      <circle
         inkscape:transform-center-x="39.353121"
         transform="rotate(-72)"
         style="opacity:1;fill:none;fill-opacity:1;stroke:#ffffff;stroke-width:2.46494699;stroke-linecap:butt;stroke-linejoin:round;stroke-miterlimit:4;stroke-dasharray:none;stroke-dashoffset:0;stroke-opacity:1;paint-order:stroke fill markers"
         id="circle906"
         cx="-157.84998"
         cy="867.10065"
         r="17.003365"
         inkscape:transform-center-y="-12.786617" />
    </g>
    <circle
       r="123.7759"
       cy="269.25159"
       cx="272.61526"
       id="circle894"
       style="opacity:1;fill:#b3b3b3;fill-opacity:1;stroke:none;stroke-width:6.09358835;stroke-linecap:butt;stroke-linejoin:round;stroke-miterlimit:4;stroke-dasharray:none;stroke-dashoffset:0;stroke-opacity:1;paint-order:stroke fill markers" />
    <circle
       style="opacity:0.4540005;fill:#f4d269;fill-opacity:1;stroke:none;stroke-width:2;stroke-linecap:butt;stroke-linejoin:round;stroke-miterlimit:4;stroke-dasharray:none;stroke-dashoffset:0;stroke-opacity:1;paint-order:stroke fill markers"
       id="path892"
       cx="272.61526"
       cy="269.25159"
       r="40.624966" />
    <path
       style="opacity:0.4540005;fill:#0000ff;fill-opacity:1;stroke:none;stroke-width:2;stroke-linecap:butt;stroke-linejoin:round;stroke-miterlimit:4;stroke-dasharray:none;stroke-dashoffset:0;stroke-opacity:1;paint-order:stroke fill markers"
       d="m 272.61525,228.6266 h 613.6508 v 81.24994 h -613.6508 z"
       id="rect896"
       inkscape:connector-curvature="0"
       sodipodi:nodetypes="ccccc"
       inkscape:transform-center-x="-306.82539"
       inkscape:transform-center-y="-1.6914063e-05" />
    <path
       inkscape:transform-center-y="265.71857"
       inkscape:transform-center-x="-153.41271"
       sodipodi:nodetypes="ccccc"
       inkscape:connector-curvature="0"
       id="path1002"
       d="m 307.79753,248.93908 306.8254,531.43719 -70.36452,40.62497 -306.8254,-531.43719 z"
       style="opacity:0.4540005;fill:#0000ff;fill-opacity:1;stroke:none;stroke-width:2;stroke-linecap:butt;stroke-linejoin:round;stroke-miterlimit:4;stroke-dasharray:none;stroke-dashoffset:0;stroke-opacity:1;paint-order:stroke fill markers" />
    <path
       style="opacity:0.4540005;fill:#0000ff;fill-opacity:1;stroke:none;stroke-width:2;stroke-linecap:butt;stroke-linejoin:round;stroke-miterlimit:4;stroke-dasharray:none;stroke-dashoffset:0;stroke-opacity:1;paint-order:stroke fill markers"
       d="M 307.79754,289.56407 0.97213762,821.00126 -69.392378,780.37628 237.43303,248.9391 Z"
       id="path1004"
       inkscape:connector-curvature="0"
       sodipodi:nodetypes="ccccc"
       inkscape:transform-center-x="153.41268"
       inkscape:transform-center-y="265.71859" />
    <path
       inkscape:transform-center-y="1.5e-05"
       inkscape:transform-center-x="306.82539"
       sodipodi:nodetypes="ccccc"
       inkscape:connector-curvature="0"
       id="path1006"
       d="m 272.61528,309.87658 h -613.65081 l 10e-6,-81.24995 613.6508,1e-5 z"
       style="opacity:0.4540005;fill:#0000ff;fill-opacity:1;stroke:none;stroke-width:2;stroke-linecap:butt;stroke-linejoin:round;stroke-miterlimit:4;stroke-dasharray:none;stroke-dashoffset:0;stroke-opacity:1;paint-order:stroke fill markers" />
    <path
       style="opacity:0.4540005;fill:#0000ff;fill-opacity:1;stroke:none;stroke-width:2;stroke-linecap:butt;stroke-linejoin:round;stroke-miterlimit:4;stroke-dasharray:none;stroke-dashoffset:0;stroke-opacity:1;paint-order:stroke fill markers"
       d="M 237.433,289.5641 -69.392406,-241.87309 0.97211989,-282.49806 307.79751,248.93913 Z"
       id="path1008"
       inkscape:connector-curvature="0"
       sodipodi:nodetypes="ccccc"
       inkscape:transform-center-x="153.41271"
       inkscape:transform-center-y="-265.71857" />
    <path
       inkscape:transform-center-y="-265.71859"
       inkscape:transform-center-x="-153.41268"
       sodipodi:nodetypes="ccccc"
       inkscape:connector-curvature="0"
       id="path1010"
       d="M 237.43298,248.93911 544.25839,-282.49808 614.6229,-241.8731 307.79749,289.56408 Z"
       style="opacity:0.4540005;fill:#0000ff;fill-opacity:1;stroke:none;stroke-width:2;stroke-linecap:butt;stroke-linejoin:round;stroke-miterlimit:4;stroke-dasharray:none;stroke-dashoffset:0;stroke-opacity:1;paint-order:stroke fill markers" />
    <path
       style="fill:#782121;stroke:none;stroke-width:0.26458332px;stroke-linecap:butt;stroke-linejoin:miter;stroke-opacity:1"
       d="m 249.16039,228.62664 46.90968,-4e-5 23.45486,40.62493 -23.45481,40.625 -46.90967,5e-5 -23.45486,-40.62497 z"
       id="path1026"
       inkscape:connector-curvature="0" />
    <path
       style="opacity:1;fill:#4459af;fill-opacity:1;stroke:none;stroke-width:7.55905533;stroke-linecap:butt;stroke-linejoin:round;stroke-miterlimit:4;stroke-dasharray:none;stroke-dashoffset:0;stroke-opacity:1;paint-order:stroke fill markers"
       d="m 1296.3008,864.09961 -265.9438,153.54419 265.9438,153.5437 h 175.3926 c 17.3472,-49.341 26.2974,-101.2417 26.4785,-153.543 -0.1834,-52.30239 -9.1363,-104.20374 -26.4864,-153.54489 z"
       transform="scale(0.26458333)"
       id="path1028"
       inkscape:connector-curvature="0"
       sodipodi:nodetypes="ccccccc" />
    <path
       sodipodi:nodetypes="ccccccc"
       inkscape:connector-curvature="0"
       id="path1036"
       d="m 342.97992,309.87624 -70.36463,-40.62465 -2.3e-4,81.24982 23.20298,40.18873 c 13.60069,-2.55253 26.67704,-7.36775 38.6851,-14.24528 11.96009,-6.96119 22.66816,-15.87874 31.67871,-26.38169 z"
       style="opacity:1;fill:#ffffff;fill-opacity:1;stroke:none;stroke-width:2;stroke-linecap:butt;stroke-linejoin:round;stroke-miterlimit:4;stroke-dasharray:none;stroke-dashoffset:0;stroke-opacity:1;paint-order:stroke fill markers"
       inkscape:transform-center-x="-46.783169"
       inkscape:transform-center-y="60.71928" />
    <path
       inkscape:transform-center-y="60.71841"
       inkscape:transform-center-x="46.783581"
       style="opacity:1;fill:#68d093;fill-opacity:1;stroke:none;stroke-width:2;stroke-linecap:butt;stroke-linejoin:round;stroke-miterlimit:4;stroke-dasharray:none;stroke-dashoffset:0;stroke-opacity:1;paint-order:stroke fill markers"
       d="m 272.61562,350.50147 -3.4e-4,-81.24988 -70.36452,40.62471 -23.20297,40.18874 c 9.0109,10.50227 19.71918,19.41912 31.67932,26.37964 12.00862,6.87714 25.08548,11.69183 38.68657,14.24372 z"
       id="path1038"
       inkscape:connector-curvature="0"
       sodipodi:nodetypes="ccccccc" />
    <path
       sodipodi:nodetypes="ccccccc"
       inkscape:connector-curvature="0"
       id="path1040"
       d="m 202.25099,309.87682 70.36429,-40.62524 -70.36429,-40.6251 h -46.40596 c -4.58978,13.05481 -6.95786,26.78687 -7.00578,40.62492 0.0485,13.83834 2.41732,27.57058 7.00787,40.62541 z"
       style="opacity:1;fill:#373737;fill-opacity:1;stroke:none;stroke-width:2;stroke-linecap:butt;stroke-linejoin:round;stroke-miterlimit:4;stroke-dasharray:none;stroke-dashoffset:0;stroke-opacity:1;paint-order:stroke fill markers"
       inkscape:transform-center-x="61.888021"
       inkscape:transform-center-y="6.5e-05" />
    <path
       inkscape:transform-center-y="-60.719285"
       inkscape:transform-center-x="46.783166"
       style="opacity:1;fill:#f4d269;fill-opacity:1;stroke:none;stroke-width:2;stroke-linecap:butt;stroke-linejoin:round;stroke-miterlimit:4;stroke-dasharray:none;stroke-dashoffset:0;stroke-opacity:1;paint-order:stroke fill markers"
       d="m 202.25065,228.62693 70.36464,40.62465 2.2e-4,-81.24982 -23.20298,-40.18874 c -13.60069,2.55254 -26.67704,7.36776 -38.6851,14.24528 -11.96011,6.96117 -22.66816,15.87875 -31.6787,26.3817 z"
       id="path1042"
       inkscape:connector-curvature="0"
       sodipodi:nodetypes="ccccccc" />
    <path
       sodipodi:nodetypes="ccccccc"
       inkscape:connector-curvature="0"
       id="path1044"
       d="m 272.61495,188.0017 3.4e-4,81.24989 70.36452,-40.62472 23.20298,-40.18874 c -9.01091,-10.50228 -19.71919,-19.41912 -31.67932,-26.37964 -12.00861,-6.87718 -25.08548,-11.69183 -38.68658,-14.24371 z"
       style="opacity:1;fill:#dd419d;fill-opacity:1;stroke:none;stroke-width:2;stroke-linecap:butt;stroke-linejoin:round;stroke-miterlimit:4;stroke-dasharray:none;stroke-dashoffset:0;stroke-opacity:1;paint-order:stroke fill markers"
       inkscape:transform-center-x="-46.783584"
       inkscape:transform-center-y="-60.7184" />
    <path
       style="fill:none;stroke:#000000;stroke-width:0.26458332px;stroke-linecap:butt;stroke-linejoin:miter;stroke-opacity:1"
       d="M 272.61529,269.25159 884.95218,229.11691"
       id="path1559"
       inkscape:connector-curvature="0"
       inkscape:transform-center-x="-306.16845"
       sodipodi:nodetypes="cc"
       inkscape:transform-center-y="-20.06734" />
    <path
       sodipodi:nodetypes="cc"
       inkscape:transform-center-x="-302.16402"
       inkscape:connector-curvature="0"
       id="path1610"
       d="M 272.61529,269.25159 876.94332,162.69225"
       style="fill:none;stroke:#000000;stroke-width:0.26458332px;stroke-linecap:butt;stroke-linejoin:miter;stroke-opacity:1"
       inkscape:transform-center-y="-53.27967" />
    <path
       inkscape:connector-curvature="0"
       id="path1624"
       d="M 272.61529,269.25159 482.49621,845.89467 272.61527,882.90233 Z"
       style="fill:none;stroke:#000000;stroke-width:0.26458332px;stroke-linecap:butt;stroke-linejoin:miter;stroke-opacity:1"
       inkscape:transform-center-x="-104.94046"
       inkscape:transform-center-y="306.82537" />
    <path
       inkscape:transform-center-y="306.82538"
       inkscape:transform-center-x="104.94045"
       style="fill:none;stroke:#000000;stroke-width:0.26458332px;stroke-linecap:butt;stroke-linejoin:miter;stroke-opacity:1"
       d="M 272.61529,269.25159 V 882.90235 L 62.73436,845.89465 Z"
       id="path1626"
       inkscape:connector-curvature="0" />
    <path
       inkscape:connector-curvature="0"
       id="path1628"
       d="M 272.61529,269.25159 62.734364,845.89469 -121.83182,739.33532 Z"
       style="fill:none;stroke:#000000;stroke-width:0.26458332px;stroke-linecap:butt;stroke-linejoin:miter;stroke-opacity:1"
       inkscape:transform-center-x="197.22354"
       inkscape:transform-center-y="288.32155" />
    <path
       inkscape:transform-center-y="235.04188"
       inkscape:transform-center-x="265.71857"
       style="fill:none;stroke:#000000;stroke-width:0.26458332px;stroke-linecap:butt;stroke-linejoin:miter;stroke-opacity:1"
       d="M 272.61529,269.25159 -121.83182,739.33536 -258.82186,576.07695 Z"
       id="path1630"
       inkscape:connector-curvature="0" />
    <path
       inkscape:connector-curvature="0"
       id="path1632"
       d="M 272.61529,269.25159 -258.82187,576.07698 -331.71273,375.81091 Z"
       style="fill:none;stroke:#000000;stroke-width:0.26458332px;stroke-linecap:butt;stroke-linejoin:miter;stroke-opacity:1"
       inkscape:transform-center-x="302.16401"
       inkscape:transform-center-y="153.4127" />
    <path
       inkscape:transform-center-x="302.16402"
       style="fill:none;stroke:#000000;stroke-width:0.26458332px;stroke-linecap:butt;stroke-linejoin:miter;stroke-opacity:1"
       d="m 272.61529,269.25159 -604.32805,106.55934 4e-5,-213.11868 z"
       id="path1634"
       inkscape:connector-curvature="0" />
    <path
       inkscape:connector-curvature="0"
       id="path1636"
       d="M 272.61529,269.25159 -331.71276,162.69225 -258.82184,-37.573786 Z"
       style="fill:none;stroke:#000000;stroke-width:0.26458332px;stroke-linecap:butt;stroke-linejoin:miter;stroke-opacity:1"
       inkscape:transform-center-x="302.16403"
       inkscape:transform-center-y="-153.41269" />
    <path
       inkscape:transform-center-y="-235.04188"
       inkscape:transform-center-x="265.71858"
       style="fill:none;stroke:#000000;stroke-width:0.26458332px;stroke-linecap:butt;stroke-linejoin:miter;stroke-opacity:1"
       d="M 272.61529,269.25159 -258.82187,-37.573803 -121.8318,-200.83216 Z"
       id="path1638"
       inkscape:connector-curvature="0" />
    <path
       inkscape:connector-curvature="0"
       id="path1640"
       d="M 272.61529,269.25159 -121.83182,-200.83218 62.734383,-307.39149 Z"
       style="fill:none;stroke:#000000;stroke-width:0.26458332px;stroke-linecap:butt;stroke-linejoin:miter;stroke-opacity:1"
       inkscape:transform-center-x="197.22356"
       inkscape:transform-center-y="-288.32154" />
    <path
       inkscape:transform-center-y="-306.82538"
       inkscape:transform-center-x="104.94046"
       style="fill:none;stroke:#000000;stroke-width:0.26458332px;stroke-linecap:butt;stroke-linejoin:miter;stroke-opacity:1"
       d="M 272.61529,269.25159 62.73437,-307.39152 272.6153,-344.39915 Z"
       id="path1642"
       inkscape:connector-curvature="0" />
    <path
       inkscape:connector-curvature="0"
       id="path1645"
       d="m 272.61529,269.25159 10e-6,-613.65078 209.88091,37.0077 z"
       style="fill:none;stroke:#000000;stroke-width:0.26458332px;stroke-linecap:butt;stroke-linejoin:miter;stroke-opacity:1"
       inkscape:transform-center-y="-306.82541"
       inkscape:transform-center-x="-104.94045" />
    <path
       inkscape:transform-center-x="-197.22355"
       inkscape:transform-center-y="-288.32157"
       style="fill:none;stroke:#000000;stroke-width:0.26458332px;stroke-linecap:butt;stroke-linejoin:miter;stroke-opacity:1"
       d="M 272.61529,269.25159 482.49623,-307.39152 667.0624,-200.83216 Z"
       id="path1647"
       inkscape:connector-curvature="0" />
    <path
       inkscape:connector-curvature="0"
       id="path1649"
       d="M 272.61529,269.25159 667.06242,-200.83217 804.05244,-37.573784 Z"
       style="fill:none;stroke:#000000;stroke-width:0.26458332px;stroke-linecap:butt;stroke-linejoin:miter;stroke-opacity:1"
       inkscape:transform-center-y="-235.04189"
       inkscape:transform-center-x="-265.71857" />
    <path
       inkscape:transform-center-x="-302.16401"
       inkscape:transform-center-y="-153.4127"
       style="fill:none;stroke:#000000;stroke-width:0.26458332px;stroke-linecap:butt;stroke-linejoin:miter;stroke-opacity:1"
       d="M 272.61529,269.25159 804.05246,-37.573791 876.94332,162.69226 Z"
       id="path1653"
       inkscape:connector-curvature="0" />
    <path
       style="opacity:0.4540005;fill:#d4ff2a;fill-opacity:1;stroke:none;stroke-width:7.55905533;stroke-linecap:butt;stroke-linejoin:round;stroke-miterlimit:4;stroke-dasharray:none;stroke-dashoffset:0;stroke-opacity:1;paint-order:stroke fill markers"
       d="m 1901.1543,864.09961 -410.1719,72.32422 a 467.81443,467.81443 0 0 1 7.1895,81.22067 467.81443,467.81443 0 0 1 -7.5449,81.1582 l 410.5156,72.3848 h 1413.289 V 864.09961 Z"
       transform="scale(0.26458333)"
       id="path1663"
       inkscape:connector-curvature="0" />
    <path
       style="fill:#ffffff;stroke:none;stroke-width:0.99999994px;stroke-linecap:butt;stroke-linejoin:miter;stroke-opacity:1"
       d="m 1490.9941,936.52148 -51.7089,82.71482 51.3418,79.5664 a 467.81442,467.81442 0 0 0 7.5449,-81.1582 467.81442,467.81442 0 0 0 -7.1778,-81.12302 z"
       transform="scale(0.26458333)"
       id="path1673"
       inkscape:connector-curvature="0"
       inkscape:transform-center-x="-115.9858"
       inkscape:transform-center-y="0.004834587" />
    <path
       inkscape:transform-center-y="105.05591"
       inkscape:transform-center-x="-60.909985"
       inkscape:connector-curvature="0"
       id="path1681"
       d="m 352.14179,364.06826 -25.7936,-0.90588 -11.43943,22.29023 a 123.7759,123.7759 0 0 0 19.59438,-9.00775 123.7759,123.7759 0 0 0 17.63865,-12.3766 z"
       style="fill:#b3b3b3;stroke:none;stroke-width:0.26458332px;stroke-linecap:butt;stroke-linejoin:miter;stroke-opacity:1" />
    <path
       inkscape:transform-center-y="104.88488"
       inkscape:transform-center-x="60.91835"
       inkscape:connector-curvature="0"
       id="path1683"
       d="m 230.2649,385.53189 -12.11229,-22.79085 -25.02363,1.23828 a 123.7759,123.7759 0 0 0 17.59814,12.46535 123.7759,123.7759 0 0 0 19.53778,9.08722 z"
       style="fill:#ffffff;stroke:none;stroke-width:0.26458332px;stroke-linecap:butt;stroke-linejoin:miter;stroke-opacity:1" />
    <path
       style="fill:#ffffff;stroke:none;stroke-width:0.26458332px;stroke-linecap:butt;stroke-linejoin:miter;stroke-opacity:1"
       d="m 150.73838,290.71523 13.68134,-21.88498 -13.58421,-21.05196 a 123.7759,123.7759 0 0 0 -1.99623,21.4731 123.7759,123.7759 0 0 0 1.8991,21.46384 z"
       id="path1685"
       inkscape:connector-curvature="0"
       inkscape:transform-center-x="115.9858"
       inkscape:transform-center-y="-0.004825" />
    <path
       inkscape:transform-center-y="-105.05592"
       inkscape:transform-center-x="60.91001"
       inkscape:connector-curvature="0"
       id="path1687"
       d="m 193.08877,174.43489 25.79363,0.9059 11.43942,-22.29025 a 123.7759,123.7759 0 0 0 -19.59436,9.00776 123.7759,123.7759 0 0 0 -17.63869,12.37659 z"
       style="fill:#ffffff;stroke:none;stroke-width:0.26458332px;stroke-linecap:butt;stroke-linejoin:miter;stroke-opacity:1" />
    <path
       style="fill:#ffffff;stroke:none;stroke-width:0.26458332px;stroke-linecap:butt;stroke-linejoin:miter;stroke-opacity:1"
       d="m 314.9657,152.97124 12.11229,22.79089 25.02363,-1.23829 a 123.7759,123.7759 0 0 0 -17.59812,-12.46535 123.7759,123.7759 0 0 0 -19.5378,-9.08725 z"
       id="path1689"
       inkscape:connector-curvature="0"
       inkscape:transform-center-x="-60.918355"
       inkscape:transform-center-y="-104.8849" />
    <path
       style="opacity:1;fill:#ffffff;fill-opacity:1;stroke:none;stroke-width:7.55905533;stroke-linecap:butt;stroke-linejoin:round;stroke-miterlimit:4;stroke-dasharray:none;stroke-dashoffset:0;stroke-opacity:1;paint-order:stroke fill markers"
       d="m 1761.0684,896.47461 -261.4844,46.10742 c 3.9958,24.82005 6.12,49.90711 6.1465,75.05467 a 7.559811,7.559811 0 0 1 0,0.049 c -0.1375,25.1262 -2.3714,50.1832 -6.4707,74.9649 l 261.2754,46.0703 c 6.8578,-40.0078 10.5426,-80.4966 10.7656,-121.0957 -0.043,-40.60233 -3.5505,-81.11026 -10.2324,-121.15039 z"
       transform="scale(0.26458333)"
       id="path1691"
       inkscape:connector-curvature="0"
       inkscape:transform-center-x="-160.05262"
       inkscape:transform-center-y="-0.01221384" />
    <path
       inkscape:transform-center-y="59.989084"
       inkscape:transform-center-x="-151.21737"
       inkscape:connector-curvature="0"
       id="path1703"
       d="m 465.25482,305.2498 -69.18447,-12.19892 c -1.25257,6.53253 -2.99464,12.96207 -5.26372,19.21683 a 2.0002,2.0002 0 0 1 -0.004,0.0122 c -2.30792,6.23461 -5.13081,12.2623 -8.39257,18.05274 l 60.79108,35.09787 c 5.32546,-9.32643 9.90555,-19.05959 13.63492,-29.13345 3.66352,-10.09872 6.45714,-20.48749 8.41919,-31.04721 z"
       style="opacity:1;fill:#ffffff;fill-opacity:1;stroke:none;stroke-width:2;stroke-linecap:butt;stroke-linejoin:round;stroke-miterlimit:4;stroke-dasharray:none;stroke-dashoffset:0;stroke-opacity:1;paint-order:stroke fill markers" />
    <path
       style="opacity:1;fill:#ffffff;fill-opacity:1;stroke:none;stroke-width:2;stroke-linecap:butt;stroke-linejoin:round;stroke-miterlimit:4;stroke-dasharray:none;stroke-dashoffset:0;stroke-opacity:1;paint-order:stroke fill markers"
       d="m 441.32513,368.96545 -60.83986,-35.12572 c -3.41129,5.71016 -7.24733,11.15613 -11.51882,16.25761 a 2.0002,2.0002 0 0 1 -0.008,0.0101 c -4.3011,5.06926 -9.01534,9.76795 -14.06084,14.0936 l 45.12075,53.77298 c 8.19412,-6.94256 15.82694,-14.52226 22.77686,-22.71307 6.89655,-8.23669 13.07486,-17.04347 18.53022,-26.2953 z"
       id="path1705"
       inkscape:connector-curvature="0"
       inkscape:transform-center-x="-125.49624"
       inkscape:transform-center-y="106.65526" />
    <path
       style="opacity:1;fill:#ffffff;fill-opacity:1;stroke:none;stroke-width:7.55905533;stroke-linecap:butt;stroke-linejoin:round;stroke-miterlimit:4;stroke-dasharray:none;stroke-dashoffset:0;stroke-opacity:1;paint-order:stroke fill markers"
       d="m 1901.8125,871.6582 -125.8555,22.19141 c 6.8349,40.9107 10.4179,82.30086 10.461,123.78709 a 7.559811,7.559811 0 0 1 0,0.049 c -0.2264,41.4584 -3.9874,82.8064 -10.9942,123.6602 l 126.3809,22.2832 h 138.3535 c 7.399,-48.3245 11.418,-97.1066 11.8301,-145.998 -0.2734,-48.87281 -4.1519,-97.64645 -11.4082,-145.9727 z"
       transform="scale(0.26458333)"
       id="path1707"
       inkscape:connector-curvature="0"
       inkscape:transform-center-x="-233.71943"
       inkscape:transform-center-y="-7.0787979e-05" />
    <path
       style="opacity:1;fill:#ffffff;fill-opacity:1;stroke:none;stroke-width:7.55905533;stroke-linecap:butt;stroke-linejoin:round;stroke-miterlimit:4;stroke-dasharray:none;stroke-dashoffset:0;stroke-opacity:1;paint-order:stroke fill markers"
       d="m 2055.8379,871.6582 c 7.1483,48.3264 10.9989,97.08649 11.2695,145.9453 a 7.559811,7.559811 0 0 1 0,0.1035 c -0.4094,48.8611 -4.3991,97.6129 -11.6855,145.9219 h 268.0527 c 5.7726,-48.4455 8.8989,-97.1703 9.2031,-145.9609 -0.5204,-48.81951 -3.8632,-97.56041 -9.8574,-146.0098 z"
       transform="scale(0.26458333)"
       id="path1725"
       inkscape:connector-curvature="0" />
    <path
       style="opacity:1;fill:#68d093;fill-opacity:1;stroke:none;stroke-width:7.55905533;stroke-linecap:butt;stroke-linejoin:round;stroke-miterlimit:4;stroke-dasharray:none;stroke-dashoffset:0;stroke-opacity:1;paint-order:stroke fill markers"
       d="m 2338.0332,871.6582 c 5.9208,48.41995 9.2457,97.12397 9.7637,145.9063 a 7.559811,7.559811 0 0 1 0,0.1269 c -0.3015,48.7805 -3.4083,97.4952 -9.1133,145.9375 h 267.625 c 4.575,-48.5151 6.9762,-97.2107 7.0586,-145.9434 -0.4865,-48.77971 -3.2947,-97.50304 -8.2813,-146.0273 z"
       transform="scale(0.26458333)"
       id="path1737"
       inkscape:connector-curvature="0" />
    <path
       style="opacity:1;fill:#ffffff;fill-opacity:1;stroke:none;stroke-width:7.55905533;stroke-linecap:butt;stroke-linejoin:round;stroke-miterlimit:4;stroke-dasharray:none;stroke-dashoffset:0;stroke-opacity:1;paint-order:stroke fill markers"
       d="m 2620.2695,871.6582 c 4.9352,48.48847 7.7298,97.17062 8.2149,145.9102 a 7.559811,7.559811 0 0 1 0,0.088 c -0.081,48.7411 -2.4694,97.4457 -7.002,145.9727 h 265.4785 c 4.2542,-48.5561 6.6581,-97.2581 7.0938,-146 -0.3013,-48.72676 -2.5698,-97.41904 -6.6875,-145.9707 z"
       transform="scale(0.26458333)"
       id="path1755"
       inkscape:connector-curvature="0" />
    <path
       sodipodi:nodetypes="cc"
       inkscape:transform-center-x="-186.78345"
       inkscape:connector-curvature="0"
       id="path1781"
       d="m 272.61529,269.25159 373.5669,486.84188"
       style="fill:none;stroke:#000000;stroke-width:0.26458332px;stroke-linecap:butt;stroke-linejoin:miter;stroke-opacity:1"
       inkscape:transform-center-y="243.42093" />
    <path
       inkscape:transform-center-y="265.71857"
       style="fill:none;stroke:#000000;stroke-width:0.26458332px;stroke-linecap:butt;stroke-linejoin:miter;stroke-opacity:1"
       d="M 272.61529,269.25159 579.44066,800.68874"
       id="path1783"
       inkscape:connector-curvature="0"
       inkscape:transform-center-x="-153.41269"
       sodipodi:nodetypes="cc" />
    <path
       style="fill:none;stroke:#000000;stroke-width:5;stroke-linecap:butt;stroke-linejoin:miter;stroke-miterlimit:4;stroke-dasharray:none;stroke-opacity:1"
       d="M 272.61529,269.25159 H 886.26605"
       id="path1801"
       inkscape:connector-curvature="0"
       inkscape:transform-center-x="-306.82538" />
    <path
       inkscape:transform-center-x="-306.16845"
       inkscape:connector-curvature="0"
       id="path1803"
       d="m 272.61529,269.25159 612.33689,40.13468"
       style="fill:none;stroke:#000000;stroke-width:5;stroke-linecap:butt;stroke-linejoin:miter;stroke-miterlimit:4;stroke-dasharray:none;stroke-opacity:1"
       inkscape:transform-center-y="20.06734" />
    <path
       inkscape:transform-center-y="59.858665"
       style="fill:none;stroke:#000000;stroke-width:5;stroke-linecap:butt;stroke-linejoin:miter;stroke-miterlimit:4;stroke-dasharray:none;stroke-opacity:1"
       d="M 272.61529,269.25159 874.47493,388.96892"
       id="path1805"
       inkscape:connector-curvature="0"
       inkscape:transform-center-x="-300.92983" />
    <path
       inkscape:transform-center-y="98.625795"
       inkscape:transform-center-x="-300.92983"
       inkscape:connector-curvature="0"
       id="path1819"
       d="m 272.61529,269.25159 601.85964,119.71732 -20.77525,77.53427 z"
       style="fill:#d4ff2a;stroke:none;stroke-width:0.26458332px;stroke-linecap:butt;stroke-linejoin:miter;stroke-opacity:1" />
    <path
       style="fill:#d4ff2a;stroke:none;stroke-width:0.26458332px;stroke-linecap:butt;stroke-linejoin:miter;stroke-opacity:1"
       d="m 272.61529,269.25159 581.0844,197.25157 -30.71777,74.15924 z"
       id="path1821"
       inkscape:connector-curvature="0"
       inkscape:transform-center-x="-290.54221"
       inkscape:transform-center-y="135.7054" />
    <path
       inkscape:transform-center-y="170.46306"
       inkscape:transform-center-x="-275.18333"
       inkscape:connector-curvature="0"
       id="path1823"
       d="m 272.61529,269.25159 550.36664,271.41079 -40.13469,69.51533 z"
       style="fill:#d4ff2a;stroke:none;stroke-width:0.26458332px;stroke-linecap:butt;stroke-linejoin:miter;stroke-opacity:1" />
    <path
       style="fill:#d4ff2a;stroke:none;stroke-width:0.26458332px;stroke-linecap:butt;stroke-linejoin:miter;stroke-opacity:1"
       d="m 272.61529,269.25159 510.23196,340.9261 -48.8649,63.68199 z"
       id="path1825"
       inkscape:connector-curvature="0"
       inkscape:transform-center-x="-255.116"
       inkscape:transform-center-y="202.30404" />
    <path
       inkscape:transform-center-y="230.68355"
       inkscape:transform-center-x="-230.68355"
       inkscape:connector-curvature="0"
       id="path1827"
       d="m 272.61529,269.25159 461.36707,404.60807 -56.75902,56.75903 z"
       style="fill:#d4ff2a;stroke:none;stroke-width:0.26458332px;stroke-linecap:butt;stroke-linejoin:miter;stroke-opacity:1" />
    <path
       style="fill:#d4ff2a;stroke:none;stroke-width:0.26458332px;stroke-linecap:butt;stroke-linejoin:miter;stroke-opacity:1"
       d="m 272.61529,269.25159 404.60806,461.36708 -63.68198,48.86491 z"
       id="path1829"
       inkscape:connector-curvature="0"
       inkscape:transform-center-x="-202.30404"
       inkscape:transform-center-y="255.11599" />
    <path
       style="opacity:1;fill:#ffffff;fill-opacity:1;stroke:none;stroke-width:7.55905533;stroke-linecap:butt;stroke-linejoin:round;stroke-miterlimit:4;stroke-dasharray:none;stroke-dashoffset:0;stroke-opacity:1;paint-order:stroke fill markers"
       d="m 2902.5293,871.6582 c 4.0837,48.54373 6.3452,97.22308 6.6445,145.9395 a 7.559811,7.559811 0 0 1 0,0.1132 c -0.4341,48.7138 -2.8293,97.3873 -7.0468,145.918 h 351.5644 c 3.9569,-48.5985 6.3671,-97.3118 7.1309,-146.0664 -0.054,-48.67744 -1.7522,-97.33589 -4.9903,-145.9043 z"
       transform="scale(0.26458333)"
       id="path1845"
       inkscape:connector-curvature="0" />
    <path
       style="fill:#ffffff;stroke:none;stroke-width:0.99999994px;stroke-linecap:butt;stroke-linejoin:miter;stroke-opacity:1"
       d="m 2899.0508,1178.7461 c -4.8309,66.3713 -13.1881,132.4333 -25.0293,197.918 l 344.914,68.6074 c 16.508,-88.0901 27.6901,-177.0899 33.4883,-266.5254 z"
       transform="scale(0.26458333)"
       id="path1859"
       inkscape:connector-curvature="0" />
  </g>
</svg>
