<?xml version="1.0" encoding="UTF-8" standalone="no"?>
<!-- Created with Inkscape (http://www.inkscape.org/) -->

<svg
   xmlns:dc="http://purl.org/dc/elements/1.1/"
   xmlns:cc="http://creativecommons.org/ns#"
   xmlns:rdf="http://www.w3.org/1999/02/22-rdf-syntax-ns#"
   xmlns:svg="http://www.w3.org/2000/svg"
   xmlns="http://www.w3.org/2000/svg"
   xmlns:sodipodi="http://sodipodi.sourceforge.net/DTD/sodipodi-0.dtd"
   xmlns:inkscape="http://www.inkscape.org/namespaces/inkscape"
   width="2000mm"
   height="2000mm"
   viewBox="0 0 2000 2000"
   version="1.1"
   id="svg8"
   inkscape:version="0.92.3 (2405546, 2018-03-11)"
   sodipodi:docname="mill_board_classic.svg">
  <defs
     id="defs2" />
  <sodipodi:namedview
     id="base"
     pagecolor="#ffffff"
     bordercolor="#666666"
     borderopacity="1.0"
     inkscape:pageopacity="0.0"
     inkscape:pageshadow="2"
     inkscape:zoom="0.04375"
     inkscape:cx="-3104.4574"
     inkscape:cy="2522.0572"
     inkscape:document-units="mm"
     inkscape:current-layer="layer1"
     showgrid="true"
     inkscape:window-width="1920"
     inkscape:window-height="1024"
     inkscape:window-x="0"
     inkscape:window-y="28"
     inkscape:window-maximized="1"
     inkscape:snap-bbox="true"
     inkscape:snap-intersection-paths="true"
     inkscape:snap-center="true">
    <inkscape:grid
       type="xygrid"
       id="grid815"
       units="mm"
       spacingx="0.99999999"
       spacingy="0.99999999" />
  </sodipodi:namedview>
  <metadata
     id="metadata5">
    <rdf:RDF>
      <cc:Work
         rdf:about="">
        <dc:format>image/svg+xml</dc:format>
        <dc:type
           rdf:resource="http://purl.org/dc/dcmitype/StillImage" />
        <dc:title />
      </cc:Work>
    </rdf:RDF>
  </metadata>
  <g
     inkscape:label="Ebene 1"
     inkscape:groupmode="layer"
     id="layer1"
     transform="translate(0,1703)">
    <rect
       y="-1943"
       x="-240"
       height="2480"
       width="2480"
       id="rect1185"
       style="opacity:1;fill:#d38d5f;fill-opacity:1;stroke:none;stroke-width:11.48148155;stroke-linecap:butt;stroke-linejoin:round;stroke-miterlimit:4;stroke-dasharray:none;stroke-dashoffset:0;stroke-opacity:1;paint-order:stroke fill markers"
       inkscape:export-xdpi="104.88"
       inkscape:export-ydpi="104.88" />
    <rect
       style="opacity:1;fill:#808080;fill-opacity:1;stroke:none;stroke-width:10.55555534;stroke-linecap:butt;stroke-linejoin:round;stroke-miterlimit:4;stroke-dasharray:none;stroke-dashoffset:0;stroke-opacity:1;paint-order:stroke fill markers"
       id="rect1183"
       width="2280"
       height="2280"
       x="-140"
       y="-1843"
       inkscape:export-xdpi="104.88"
       inkscape:export-ydpi="104.88" />
    <rect
       y="-1823"
       x="-120"
       height="2240"
       width="2240"
       id="rect970"
       style="opacity:1;fill:#ffeeaa;fill-opacity:1;stroke:none;stroke-width:10.37037086;stroke-linecap:butt;stroke-linejoin:round;stroke-miterlimit:4;stroke-dasharray:none;stroke-dashoffset:0;stroke-opacity:1;paint-order:stroke fill markers"
       inkscape:export-xdpi="104.88"
       inkscape:export-ydpi="104.88" />
    <rect
       style="opacity:1;fill:#f2f2f2;fill-opacity:1;stroke:none;stroke-width:10;stroke-linecap:butt;stroke-linejoin:round;stroke-miterlimit:4;stroke-dasharray:none;stroke-dashoffset:0;stroke-opacity:1;paint-order:stroke fill markers"
       id="rect1386"
       width="150"
       height="80"
       x="2080"
       y="447"
       rx="10.000044"
       ry="10.000044"
       inkscape:export-xdpi="104.88"
       inkscape:export-ydpi="104.88" />
    <g
       id="layer1-9"
       inkscape:label="Ebene 1"
       transform="matrix(0.57934488,0,0,0.57934488,2078.643,415.88375)"
       inkscape:export-xdpi="104.88"
       inkscape:export-ydpi="104.88">
      <path
         inkscape:export-ydpi="29.58"
         inkscape:export-xdpi="29.58"
         id="path815"
         transform="scale(0.26458333)"
         d="M 287.14258,268.23438 A 195.71427,195.71427 0 0 0 91.427734,463.94727 195.71427,195.71427 0 0 0 287.14258,659.66211 195.71427,195.71427 0 0 0 482.85742,463.94727 195.71427,195.71427 0 0 0 287.14258,268.23438 Z m 0,132.33007 a 63.384286,63.384286 0 0 1 63.38476,63.38282 63.384286,63.384286 0 0 1 -63.38476,63.38476 63.384286,63.384286 0 0 1 -63.38477,-63.38476 63.384286,63.384286 0 0 1 63.38477,-63.38282 z"
         style="opacity:1;fill:#f4d269;fill-opacity:1;stroke:none;stroke-width:7.55905533;stroke-linecap:butt;stroke-linejoin:round;stroke-miterlimit:4;stroke-dasharray:none;stroke-dashoffset:0;stroke-opacity:1;paint-order:stroke fill markers"
         inkscape:connector-curvature="0" />
      <path
         inkscape:export-ydpi="29.58"
         inkscape:export-xdpi="29.58"
         sodipodi:nodetypes="cccsccccccccscsccccccscsc"
         inkscape:connector-curvature="0"
         id="rect827"
         transform="scale(0.26458333)"
         d="m 375.15234,268.23438 c 74.56171,33.6761 126.60291,108.75137 126.60352,195.71289 2.5e-4,86.96217 -52.0414,162.03838 -126.60352,195.71484 h 171.57032 c 71.54781,0 129.54882,-58.00101 129.54882,-129.54883 -0.0506,-23.31564 -6.39283,-46.1855 -18.35742,-66.19726 11.94252,-19.99609 18.27337,-42.84193 18.32617,-66.13282 -10e-4,-71.53487 -57.98272,-129.52962 -129.51757,-129.54687 v -0.002 h -0.0293 z m 199.53907,80 c 27.36506,0 49.54882,22.18377 49.54882,49.54882 0,27.36507 -22.18376,49.54883 -49.54882,49.54883 -27.36511,4e-5 -49.54883,-22.18372 -49.54883,-49.54883 0,-27.36508 22.18376,-49.54886 49.54883,-49.54882 z m -287.54883,71.22851 v 88.9707 c 24.7934,1.9e-4 44.48651,-19.69293 44.48633,-44.48632 -5.8e-4,-24.79284 -19.69348,-44.48457 -44.48633,-44.48438 z m 287.58008,61.10156 c 27.36506,0 49.54882,22.18377 49.54882,49.54883 0,27.36507 -22.18376,49.54883 -49.54882,49.54883 -27.36507,4e-5 -49.54883,-22.18376 -49.54883,-49.54883 0,-27.3651 22.18372,-49.54886 49.54883,-49.54883 z"
         style="opacity:1;fill:#b3c952;fill-opacity:1;stroke:none;stroke-width:7.55905533;stroke-linecap:butt;stroke-linejoin:round;stroke-miterlimit:4;stroke-dasharray:none;stroke-dashoffset:0;stroke-opacity:1;paint-order:stroke fill markers" />
      <path
         inkscape:export-ydpi="29.58"
         inkscape:export-xdpi="29.58"
         id="rect858-9"
         transform="scale(0.26458333)"
         d="m 784.20117,268.23438 a 195.71427,195.71427 0 0 0 -118.74023,40.71679 c 18.62015,24.78905 29.67724,55.55341 29.67773,88.83203 a 18.899528,18.899528 0 0 1 0,0.043 c -0.0521,22.99786 -5.4768,45.6062 -15.72461,66.08399 10.27004,20.49819 15.70597,43.13579 15.75586,66.16211 a 18.899528,18.899528 0 0 1 0,0.041 c 0,33.37988 -11.11772,64.24529 -29.83594,89.08789 a 195.71427,195.71427 0 0 0 118.86914,40.46094 H 922.18359 V 463.94727 h -74.5957 a 63.384279,63.384279 0 0 1 -0.31641,6.32617 63.384279,63.384279 0 0 1 0,0.002 63.384279,63.384279 0 0 1 -10.73828,29.43359 c -0.0189,0.0265 -0.0377,0.0545 -0.0566,0.082 a 63.384279,63.384279 0 0 1 -3.67187,4.83203 c -0.11679,0.13946 -0.2395,0.27366 -0.35742,0.41211 a 63.384279,63.384279 0 0 1 -3.92188,4.20703 c -0.13909,0.13606 -0.28158,0.26756 -0.42187,0.40234 a 63.384279,63.384279 0 0 1 -4.30079,3.77735 c -0.15193,0.12169 -0.30614,0.24113 -0.45898,0.36132 a 63.384279,63.384279 0 0 1 -4.73242,3.38672 c -0.1115,0.0722 -0.22407,0.14341 -0.33594,0.21485 a 63.384279,63.384279 0 0 1 -5.23633,3.00195 c -0.0548,0.0265 -0.10926,0.056 -0.16406,0.084 a 63.384279,63.384279 0 0 1 -5.69336,2.54883 63.384279,63.384279 0 0 1 -0.0117,0.004 c -0.003,10e-4 -0.006,0.003 -0.01,0.004 a 63.384279,63.384279 0 0 1 -5.96094,1.98047 c -0.0265,0.008 -0.0496,0.0139 -0.0742,0.0215 a 63.384279,63.384279 0 0 1 -5.96484,1.33984 c -0.11226,0.0189 -0.22369,0.0397 -0.33594,0.0586 a 63.384279,63.384279 0 0 1 -5.75391,0.69922 c -0.26834,0.0189 -0.53547,0.0455 -0.80469,0.0625 a 63.384279,63.384279 0 0 1 -4.06445,0.14258 63.384279,63.384279 0 0 1 -63.38476,-63.38476 63.384279,63.384279 0 0 1 63.38476,-63.38282 63.384279,63.384279 0 0 1 31.66406,8.54102 L 881.9375,294.66602 a 195.71427,195.71427 0 0 0 -97.73438,-26.43164 z"
         style="opacity:1;fill:#83cee4;fill-opacity:1;stroke:none;stroke-width:37.79527664;stroke-linecap:butt;stroke-linejoin:round;stroke-miterlimit:4;stroke-dasharray:none;stroke-dashoffset:0;stroke-opacity:1;paint-order:stroke fill markers"
         inkscape:connector-curvature="0" />
    </g>
    <rect
       style="opacity:1;fill:none;fill-opacity:1;stroke:#666666;stroke-width:30;stroke-linecap:round;stroke-linejoin:miter;stroke-miterlimit:4;stroke-dasharray:none;stroke-dashoffset:0;stroke-opacity:1;paint-order:stroke fill markers"
       id="rect1015"
       width="1920"
       height="1920"
       x="39.999958"
       y="-1663"
       rx="1.0583333"
       ry="1.0583333"
       inkscape:export-xdpi="104.88"
       inkscape:export-ydpi="104.88" />
    <rect
       style="opacity:1;fill:none;fill-opacity:1;stroke:#666666;stroke-width:30;stroke-linecap:round;stroke-linejoin:miter;stroke-miterlimit:4;stroke-dasharray:none;stroke-dashoffset:0;stroke-opacity:1;paint-order:stroke fill markers"
       id="rect1017"
       width="1280"
       height="1280"
       x="360"
       y="-1343"
       rx="1.0583333"
       ry="1.0583333"
       inkscape:export-xdpi="104.88"
       inkscape:export-ydpi="104.88" />
    <rect
       style="opacity:1;fill:none;fill-opacity:1;stroke:#666666;stroke-width:30;stroke-linecap:round;stroke-linejoin:miter;stroke-miterlimit:4;stroke-dasharray:none;stroke-dashoffset:0;stroke-opacity:1;paint-order:stroke fill markers"
       id="rect1019"
       width="640"
       height="640"
       x="679.99994"
       y="-1023"
       rx="1.0583333"
       ry="1.0583333"
       inkscape:export-xdpi="104.88"
       inkscape:export-ydpi="104.88" />
    <path
       style="fill:none;stroke:#666666;stroke-width:30;stroke-linecap:butt;stroke-linejoin:miter;stroke-opacity:1;stroke-miterlimit:4;stroke-dasharray:none"
       d="m 999.99997,-1663 v 640"
       id="path1021"
       inkscape:connector-curvature="0"
       inkscape:export-xdpi="104.88"
       inkscape:export-ydpi="104.88" />
    <path
       style="fill:none;stroke:#666666;stroke-width:30;stroke-linecap:butt;stroke-linejoin:miter;stroke-opacity:1;stroke-miterlimit:4;stroke-dasharray:none"
       d="m 1320,-703 h 639.9999"
       id="path1023"
       inkscape:connector-curvature="0"
       inkscape:export-xdpi="104.88"
       inkscape:export-ydpi="104.88" />
    <path
       inkscape:connector-curvature="0"
       id="path1025"
       d="M 40,-702.99999 H 679.9999"
       style="fill:none;stroke:#666666;stroke-width:30;stroke-linecap:butt;stroke-linejoin:miter;stroke-miterlimit:4;stroke-dasharray:none;stroke-opacity:1"
       inkscape:export-xdpi="104.88"
       inkscape:export-ydpi="104.88" />
    <path
       inkscape:connector-curvature="0"
       id="path1027"
       d="M 999.99999,-383 V 257"
       style="fill:none;stroke:#666666;stroke-width:30;stroke-linecap:butt;stroke-linejoin:miter;stroke-miterlimit:4;stroke-dasharray:none;stroke-opacity:1"
       inkscape:export-xdpi="104.88"
       inkscape:export-ydpi="104.88" />
    <circle
       style="opacity:1;fill:#666666;fill-opacity:1;stroke:none;stroke-width:30;stroke-linecap:round;stroke-linejoin:miter;stroke-miterlimit:4;stroke-dasharray:none;stroke-dashoffset:0;stroke-opacity:1;paint-order:stroke fill markers"
       id="path1029"
       cx="679.99994"
       cy="-1023"
       r="40"
       inkscape:export-xdpi="104.88"
       inkscape:export-ydpi="104.88" />
    <circle
       r="40"
       cy="-1023"
       cx="1000"
       id="circle1031"
       style="opacity:1;fill:#666666;fill-opacity:1;stroke:none;stroke-width:30;stroke-linecap:round;stroke-linejoin:miter;stroke-miterlimit:4;stroke-dasharray:none;stroke-dashoffset:0;stroke-opacity:1;paint-order:stroke fill markers"
       inkscape:export-xdpi="104.88"
       inkscape:export-ydpi="104.88" />
    <circle
       style="opacity:1;fill:#666666;fill-opacity:1;stroke:none;stroke-width:30;stroke-linecap:round;stroke-linejoin:miter;stroke-miterlimit:4;stroke-dasharray:none;stroke-dashoffset:0;stroke-opacity:1;paint-order:stroke fill markers"
       id="circle1033"
       cx="1320"
       cy="-1023"
       r="40"
       inkscape:export-xdpi="104.88"
       inkscape:export-ydpi="104.88" />
    <circle
       r="40"
       cy="-703"
       cx="1320"
       id="circle1035"
       style="opacity:1;fill:#666666;fill-opacity:1;stroke:none;stroke-width:30;stroke-linecap:round;stroke-linejoin:miter;stroke-miterlimit:4;stroke-dasharray:none;stroke-dashoffset:0;stroke-opacity:1;paint-order:stroke fill markers"
       inkscape:export-xdpi="104.88"
       inkscape:export-ydpi="104.88" />
    <circle
       style="opacity:1;fill:#666666;fill-opacity:1;stroke:none;stroke-width:30;stroke-linecap:round;stroke-linejoin:miter;stroke-miterlimit:4;stroke-dasharray:none;stroke-dashoffset:0;stroke-opacity:1;paint-order:stroke fill markers"
       id="circle1037"
       cx="680"
       cy="-703"
       r="40"
       inkscape:export-xdpi="104.88"
       inkscape:export-ydpi="104.88" />
    <circle
       r="40"
       cy="-383"
       cx="680"
       id="circle1039"
       style="opacity:1;fill:#666666;fill-opacity:1;stroke:none;stroke-width:30;stroke-linecap:round;stroke-linejoin:miter;stroke-miterlimit:4;stroke-dasharray:none;stroke-dashoffset:0;stroke-opacity:1;paint-order:stroke fill markers"
       inkscape:export-xdpi="104.88"
       inkscape:export-ydpi="104.88" />
    <circle
       style="opacity:1;fill:#666666;fill-opacity:1;stroke:none;stroke-width:30;stroke-linecap:round;stroke-linejoin:miter;stroke-miterlimit:4;stroke-dasharray:none;stroke-dashoffset:0;stroke-opacity:1;paint-order:stroke fill markers"
       id="circle1041"
       cx="1000"
       cy="-383"
       r="40"
       inkscape:export-xdpi="104.88"
       inkscape:export-ydpi="104.88" />
    <circle
       r="40"
       cy="-383"
       cx="1320"
       id="circle1043"
       style="opacity:1;fill:#666666;fill-opacity:1;stroke:none;stroke-width:30;stroke-linecap:round;stroke-linejoin:miter;stroke-miterlimit:4;stroke-dasharray:none;stroke-dashoffset:0;stroke-opacity:1;paint-order:stroke fill markers"
       inkscape:export-xdpi="104.88"
       inkscape:export-ydpi="104.88" />
    <circle
       r="40"
       cy="-1343"
       cx="360"
       id="circle1045"
       style="opacity:1;fill:#666666;fill-opacity:1;stroke:none;stroke-width:30;stroke-linecap:round;stroke-linejoin:miter;stroke-miterlimit:4;stroke-dasharray:none;stroke-dashoffset:0;stroke-opacity:1;paint-order:stroke fill markers"
       inkscape:export-xdpi="104.88"
       inkscape:export-ydpi="104.88" />
    <circle
       style="opacity:1;fill:#666666;fill-opacity:1;stroke:none;stroke-width:30;stroke-linecap:round;stroke-linejoin:miter;stroke-miterlimit:4;stroke-dasharray:none;stroke-dashoffset:0;stroke-opacity:1;paint-order:stroke fill markers"
       id="circle1047"
       cx="1000"
       cy="-1343"
       r="40"
       inkscape:export-xdpi="104.88"
       inkscape:export-ydpi="104.88" />
    <circle
       r="40"
       cy="-1343"
       cx="1640"
       id="circle1049"
       style="opacity:1;fill:#666666;fill-opacity:1;stroke:none;stroke-width:30;stroke-linecap:round;stroke-linejoin:miter;stroke-miterlimit:4;stroke-dasharray:none;stroke-dashoffset:0;stroke-opacity:1;paint-order:stroke fill markers"
       inkscape:export-xdpi="104.88"
       inkscape:export-ydpi="104.88" />
    <circle
       style="opacity:1;fill:#666666;fill-opacity:1;stroke:none;stroke-width:30;stroke-linecap:round;stroke-linejoin:miter;stroke-miterlimit:4;stroke-dasharray:none;stroke-dashoffset:0;stroke-opacity:1;paint-order:stroke fill markers"
       id="circle1051"
       cx="360"
       cy="-703"
       r="40"
       inkscape:export-xdpi="104.88"
       inkscape:export-ydpi="104.88" />
    <circle
       r="40"
       cy="-703"
       cx="1640"
       id="circle1053"
       style="opacity:1;fill:#666666;fill-opacity:1;stroke:none;stroke-width:30;stroke-linecap:round;stroke-linejoin:miter;stroke-miterlimit:4;stroke-dasharray:none;stroke-dashoffset:0;stroke-opacity:1;paint-order:stroke fill markers"
       inkscape:export-xdpi="104.88"
       inkscape:export-ydpi="104.88" />
    <circle
       style="opacity:1;fill:#666666;fill-opacity:1;stroke:none;stroke-width:30;stroke-linecap:round;stroke-linejoin:miter;stroke-miterlimit:4;stroke-dasharray:none;stroke-dashoffset:0;stroke-opacity:1;paint-order:stroke fill markers"
       id="circle1055"
       cx="1640"
       cy="-62.999996"
       r="40"
       inkscape:export-xdpi="104.88"
       inkscape:export-ydpi="104.88" />
    <circle
       r="40"
       cy="-62.999996"
       cx="1000"
       id="circle1057"
       style="opacity:1;fill:#666666;fill-opacity:1;stroke:none;stroke-width:30;stroke-linecap:round;stroke-linejoin:miter;stroke-miterlimit:4;stroke-dasharray:none;stroke-dashoffset:0;stroke-opacity:1;paint-order:stroke fill markers"
       inkscape:export-xdpi="104.88"
       inkscape:export-ydpi="104.88" />
    <circle
       style="opacity:1;fill:#666666;fill-opacity:1;stroke:none;stroke-width:30;stroke-linecap:round;stroke-linejoin:miter;stroke-miterlimit:4;stroke-dasharray:none;stroke-dashoffset:0;stroke-opacity:1;paint-order:stroke fill markers"
       id="circle1059"
       cx="360"
       cy="-62.999996"
       r="40"
       inkscape:export-xdpi="104.88"
       inkscape:export-ydpi="104.88" />
    <circle
       r="40"
       cy="-703"
       cx="40"
       id="circle1061"
       style="opacity:1;fill:#666666;fill-opacity:1;stroke:none;stroke-width:30;stroke-linecap:round;stroke-linejoin:miter;stroke-miterlimit:4;stroke-dasharray:none;stroke-dashoffset:0;stroke-opacity:1;paint-order:stroke fill markers"
       inkscape:export-xdpi="104.88"
       inkscape:export-ydpi="104.88" />
    <circle
       style="opacity:1;fill:#666666;fill-opacity:1;stroke:none;stroke-width:30;stroke-linecap:round;stroke-linejoin:miter;stroke-miterlimit:4;stroke-dasharray:none;stroke-dashoffset:0;stroke-opacity:1;paint-order:stroke fill markers"
       id="circle1063"
       cx="1960"
       cy="-703"
       r="40"
       inkscape:export-xdpi="104.88"
       inkscape:export-ydpi="104.88" />
    <circle
       style="opacity:1;fill:#666666;fill-opacity:1;stroke:none;stroke-width:30;stroke-linecap:round;stroke-linejoin:miter;stroke-miterlimit:4;stroke-dasharray:none;stroke-dashoffset:0;stroke-opacity:1;paint-order:stroke fill markers"
       id="circle1065"
       cx="40"
       cy="-1663"
       r="40"
       inkscape:export-xdpi="104.88"
       inkscape:export-ydpi="104.88" />
    <circle
       r="40"
       cy="-1663"
       cx="1000"
       id="circle1067"
       style="opacity:1;fill:#666666;fill-opacity:1;stroke:none;stroke-width:30;stroke-linecap:round;stroke-linejoin:miter;stroke-miterlimit:4;stroke-dasharray:none;stroke-dashoffset:0;stroke-opacity:1;paint-order:stroke fill markers"
       inkscape:export-xdpi="104.88"
       inkscape:export-ydpi="104.88" />
    <circle
       style="opacity:1;fill:#666666;fill-opacity:1;stroke:none;stroke-width:30;stroke-linecap:round;stroke-linejoin:miter;stroke-miterlimit:4;stroke-dasharray:none;stroke-dashoffset:0;stroke-opacity:1;paint-order:stroke fill markers"
       id="circle1069"
       cx="1960"
       cy="-1663"
       r="40"
       inkscape:export-xdpi="104.88"
       inkscape:export-ydpi="104.88" />
    <circle
       r="40"
       cy="257"
       cx="40"
       id="circle1071"
       style="opacity:1;fill:#666666;fill-opacity:1;stroke:none;stroke-width:30;stroke-linecap:round;stroke-linejoin:miter;stroke-miterlimit:4;stroke-dasharray:none;stroke-dashoffset:0;stroke-opacity:1;paint-order:stroke fill markers"
       inkscape:export-xdpi="104.88"
       inkscape:export-ydpi="104.88" />
    <circle
       style="opacity:1;fill:#666666;fill-opacity:1;stroke:none;stroke-width:30;stroke-linecap:round;stroke-linejoin:miter;stroke-miterlimit:4;stroke-dasharray:none;stroke-dashoffset:0;stroke-opacity:1;paint-order:stroke fill markers"
       id="circle1073"
       cx="1000"
       cy="257"
       r="40"
       inkscape:export-xdpi="104.88"
       inkscape:export-ydpi="104.88" />
    <circle
       r="40"
       cy="257"
       cx="1960"
       id="circle1075"
       style="opacity:1;fill:#666666;fill-opacity:1;stroke:none;stroke-width:30;stroke-linecap:round;stroke-linejoin:miter;stroke-miterlimit:4;stroke-dasharray:none;stroke-dashoffset:0;stroke-opacity:1;paint-order:stroke fill markers"
       inkscape:export-xdpi="104.88"
       inkscape:export-ydpi="104.88" />
  </g>
</svg>
